<svg width="30" height="30" viewBox="0 0 30 30" fill="none" xmlns="http://www.w3.org/2000/svg">
<path d="M7.46848 28.5H8.53102L13.6665 20.0965L12.7385 11H3.2615L2.3335 20.0965L7.46848 28.5Z" fill="white"/>
<path d="M13.5 8H2.5V11H13.5V8Z" fill="#EB805B"/>
<path d="M12.5 0H3.5V7.99998H12.5V0Z" fill="#E66032"/>
<path d="M9.43752 16.5625C9.43752 15.945 9.04652 15.423 8.50002 15.2195V13H7.5V15.2195C6.9535 15.423 6.5625 15.945 6.5625 16.5625C6.5625 17.18 6.9535 17.702 7.5 17.9055V28.5H8.50002V17.9055C9.04652 17.7015 9.43752 17.1795 9.43752 16.5625Z" fill="#FDD38D"/>
<path d="M19.2145 28.5C23.5215 26.6085 26.6875 22.2225 26.6875 17H25.6875C25.6875 23.5 20.5 28.5 14.5 28.5H1.5V29.5H28.5V28.5H19.2145Z" fill="#E66032"/>
<path d="M28 29C28 28.4475 28.4475 28 29 28C29.5525 28 30 28.4475 30 29C30 29.5525 29.5526 30 29 30C28.4475 30 28 29.5525 28 29Z" fill="#EF997C"/>
<path d="M14 29C14 28.4475 14.4475 28 15 28C15.5525 28 16.0001 28.4475 16.0001 29C16.0001 29.5525 15.5526 30 15 30C14.4475 30 14 29.5525 14 29Z" fill="#EF997C"/>
<path d="M0 29C0 28.4475 0.44748 28 1.00002 28C1.5525 28 2.00004 28.4475 2.00004 29C2.00004 29.5525 1.55256 30 1.00002 30C0.44748 30 0 29.5525 0 29Z" fill="#EF997C"/>
<path d="M24.5 1.99996H23.5V1H22.5V1.99996H21.5V2.99998H22.5V4H23.5V2.99998H24.5V1.99996Z" fill="#E66032"/>
<path d="M26.2477 14.4823L24.48 16.25L26.2477 18.0177L28.0154 16.25L26.2477 14.4823Z" fill="#FCB641"/>
<path d="M19 16C18.173 16 17.5 15.327 17.5 14.5C17.5 13.673 18.173 13 19 13C19.827 13 20.5 13.673 20.5 14.5C20.5 15.327 19.827 16 19 16ZM19 14C18.724 14 18.5 14.2244 18.5 14.4999C18.5 14.7754 18.724 14.9999 19 14.9999C19.276 14.9999 19.5 14.7754 19.5 14.4999C19.5 14.2244 19.276 14 19 14Z" fill="#E66032"/>
<path d="M9.5 4H8.50004H7.50002H6.5V4.99996H7.50002V7.99996H8.50004V4.99996H9.5V4Z" fill="#EB805B"/>
</svg>
