<svg width="30" height="31" viewBox="0 0 30 31" fill="none" xmlns="http://www.w3.org/2000/svg">
<path d="M30.0004 16.9014L30.0004 13.5211L14.7891 13.5211L14.7891 8.45068L6.33838 15.2112L14.7891 21.9718L14.7891 16.9014L30.0004 16.9014Z" fill="#E66032"/>
<path d="M3.38013 30.4224L18.5914 30.4224C20.4556 30.4224 21.9717 28.9063 21.9717 27.0421L21.9717 20.2815L18.5914 20.2815L18.5914 27.0421L3.38013 27.0421L3.38014 3.38011L18.5914 3.38011L18.5914 10.1407L21.9717 10.1407L21.9717 3.38011C21.9717 1.51588 20.4556 -0.000171794 18.5914 -0.000171957L3.38014 -0.000173287C1.51591 -0.00017345 -0.000146246 1.51588 -0.000146409 3.38011L-0.000148478 27.0421C-0.000148641 28.9063 1.51591 30.4224 3.38013 30.4224Z" fill="white"/>
</svg>
