<svg width="30" height="31" viewBox="0 0 30 31" fill="none" xmlns="http://www.w3.org/2000/svg">
<path d="M30.0001 16.9014L30.0001 13.5211L14.7888 13.5211L14.7888 8.45068L6.33813 15.2112L14.7888 21.9718L14.7888 16.9014L30.0001 16.9014Z" fill="#E66032"/>
<path d="M3.38038 30.4224L18.5916 30.4224C20.4559 30.4224 21.9719 28.9063 21.9719 27.0421L21.9719 20.2815L18.5916 20.2815L18.5916 27.0421L3.38038 27.0421L3.38038 3.38011L18.5916 3.38011L18.5916 10.1407L21.9719 10.1407L21.9719 3.38011C21.9719 1.51588 20.4559 -0.000171794 18.5916 -0.000171957L3.38038 -0.000173287C1.51615 -0.00017345 9.78945e-05 1.51588 9.77315e-05 3.38011L9.56629e-05 27.0421C9.55e-05 28.9063 1.51615 30.4224 3.38038 30.4224Z" fill="#FCB641"/>
</svg>
