<svg width="16" height="16" viewBox="0 0 16 16" fill="none" xmlns="http://www.w3.org/2000/svg">
<path d="M7.88679 15.0236C12.0354 15.0236 15.3986 11.6604 15.3986 7.51179C15.3986 3.36314 12.0354 0 7.88679 0C3.73814 0 0.375 3.36314 0.375 7.51179C0.375 11.6604 3.73814 15.0236 7.88679 15.0236Z" fill="#3B4551"/>
<path d="M7.8867 3.72412C7.88657 3.72412 7.88647 3.72412 7.88647 3.72412C8.60539 4.81015 9.02503 6.11168 9.02503 7.51145C9.02503 8.91143 8.60539 10.2129 7.88647 11.299C7.88647 11.299 7.8866 11.299 7.8867 11.299C9.97844 11.299 11.674 9.60322 11.674 7.51145C11.674 5.41996 9.97834 3.72412 7.8867 3.72412Z" fill="url(#paint0_radial_193:351)"/>
<path d="M7.88598 3.72412C5.79434 3.72434 4.09888 5.41993 4.09888 7.51145C4.09888 9.60319 5.79434 11.2988 7.88598 11.299C8.6049 10.213 9.02454 8.91147 9.02454 7.51145C9.02454 6.11171 8.6049 4.81015 7.88598 3.72412Z" fill="#717171"/>
<defs>
<radialGradient id="paint0_radial_193:351" cx="0" cy="0" r="1" gradientUnits="userSpaceOnUse" gradientTransform="translate(7.88707 7.51137) scale(3.78723)">
<stop offset="0.818" stop-color="#D8D5DB"/>
<stop offset="1" stop-color="#D8D5DB"/>
</radialGradient>
</defs>
</svg>
