<svg width="16" height="16" viewBox="0 0 16 16" fill="none" xmlns="http://www.w3.org/2000/svg">
<path d="M7.88679 15.0236C12.0354 15.0236 15.3986 11.6604 15.3986 7.51179C15.3986 3.36314 12.0354 0 7.88679 0C3.73814 0 0.375 3.36314 0.375 7.51179C0.375 11.6604 3.73814 15.0236 7.88679 15.0236Z" fill="#3B4551"/>
<path d="M7.88694 3.72363C8.60586 4.80967 9.02528 6.11119 9.02528 7.51096C9.02528 8.91095 8.60564 10.2124 7.88672 11.2985C9.97846 11.2985 11.6743 9.60273 11.6743 7.51096C11.6743 5.41947 9.97859 3.72363 7.88694 3.72363Z" fill="#353739"/>
<path d="M7.88574 3.72363C5.79409 3.72385 4.09863 5.41944 4.09863 7.51096C4.09863 9.6027 5.79409 11.2983 7.88574 11.2985C8.60466 10.2125 9.0243 8.91098 9.0243 7.51096C9.0243 6.11123 8.60466 4.80967 7.88574 3.72363Z" fill="#888A90"/>
</svg>
