<svg width="20" height="20" viewBox="0 0 20 20" fill="none" xmlns="http://www.w3.org/2000/svg">
<path d="M6.99999 0C3.14585 0 0 3.14586 0 7.00001C0 10.8542 3.14585 14 6.99999 14C8.74799 14 10.345 13.3481 11.5742 12.2813L12 12.7071V14L18.0001 20L20 18L14 12H12.707L12.2812 11.5742C13.348 10.345 14 8.74801 14 7.00001C14 3.14586 10.8541 0 6.99999 0ZM6.99999 2.00001C9.77325 2.00001 12 4.22675 12 7.00001C12 9.77329 9.77325 12 6.99999 12C4.22672 12 2 9.77329 2 7.00001C2 4.22675 4.22672 2.00001 6.99999 2.00001Z" fill="#888A90"/>
</svg>
