<svg width="20" height="20" viewBox="0 0 20 20" fill="none" xmlns="http://www.w3.org/2000/svg">
<path d="M18.7077 4.62786C18.6188 4.56521 18.5088 4.54032 18.4016 4.55861C18.2944 4.57691 18.1989 4.63691 18.1358 4.72549C18.0728 4.81407 18.0474 4.92402 18.0652 5.03127C18.083 5.13853 18.1426 5.23436 18.2309 5.2978C18.3957 5.42914 18.5423 5.5818 18.6669 5.75178L9.99999 11.661L1.3678 5.77544C1.50368 5.59619 1.65789 5.4316 1.82793 5.28435C1.91307 5.21625 1.96767 5.11711 1.97971 5.00876C1.99176 4.9004 1.96027 4.79169 1.89217 4.70655C1.82407 4.62141 1.72494 4.56681 1.61658 4.55477C1.50822 4.54272 1.39951 4.57421 1.31437 4.64231C1.26599 4.68086 0.13208 5.60196 0.13208 6.81356V17.5038C0.132721 18.0488 0.349521 18.5714 0.734923 18.9568C1.12032 19.3422 1.64286 19.559 2.1879 19.5596H17.8121C18.3571 19.559 18.8797 19.3422 19.2651 18.9568C19.6505 18.5714 19.8673 18.0488 19.8679 17.5038V6.81356C19.8679 5.46524 18.7551 4.66138 18.7077 4.62786Z" fill="#3B4551"/>
<path d="M3.83257 6.19671C3.91357 6.19672 3.99377 6.18078 4.0686 6.14979C4.14344 6.1188 4.21143 6.07337 4.2687 6.01609C4.32598 5.95882 4.3714 5.89083 4.40239 5.81599C4.43338 5.74116 4.44933 5.66096 4.44931 5.57996V1.67392H15.5507V5.57996C15.5507 5.66095 15.5667 5.74115 15.5977 5.81598C15.6286 5.89081 15.6741 5.95879 15.7313 6.01606C15.7886 6.07333 15.8566 6.11876 15.9314 6.14976C16.0063 6.18075 16.0865 6.1967 16.1675 6.1967C16.2484 6.1967 16.3286 6.18075 16.4035 6.14976C16.4783 6.11876 16.5463 6.07333 16.6036 6.01606C16.6608 5.95879 16.7063 5.89081 16.7372 5.81598C16.7682 5.74115 16.7842 5.66095 16.7842 5.57996V1.51934C16.7839 1.2333 16.6701 0.959068 16.4678 0.756807C16.2656 0.554546 15.9913 0.440768 15.7053 0.44043H4.29473C4.00869 0.440768 3.73446 0.554546 3.5322 0.756807C3.32994 0.959068 3.21616 1.2333 3.21582 1.51934V5.57996C3.21581 5.66096 3.23175 5.74116 3.26274 5.816C3.29373 5.89083 3.33916 5.95882 3.39643 6.0161C3.45371 6.07337 3.5217 6.1188 3.59654 6.14979C3.67137 6.18078 3.75157 6.19672 3.83257 6.19671Z" fill="#FCB641"/>
</svg>
