<svg width="16" height="11" viewBox="0 0 16 11" fill="none" xmlns="http://www.w3.org/2000/svg">
<path d="M8.42364 0.0546875H7.44385V2.66744H8.42364V0.0546875Z" fill="#888A90"/>
<path d="M2.96893 1.90826L2.27612 2.60107L4.12358 4.44853L4.81639 3.75572L2.96893 1.90826Z" fill="#888A90"/>
<path d="M3.03512 7.07666H0.422363V8.05645H3.03512V7.07666Z" fill="#888A90"/>
<path d="M15.4461 10.0156H0.422363V10.9954H15.4461V10.0156Z" fill="#888A90"/>
<path d="M15.4465 7.07666H12.8337V8.05645H15.4465V7.07666Z" fill="#888A90"/>
<path d="M12.8999 1.90991L11.0525 3.75732L11.7453 4.45013L13.5927 2.60272L12.8999 1.90991Z" fill="#888A90"/>
<path d="M7.93409 3.97363C5.94998 3.97363 4.34155 5.5821 4.34155 7.56618C4.34155 8.15421 4.48287 8.7092 4.73334 9.19914H11.1349C11.3853 8.70917 11.5267 8.15421 11.5267 7.56618C11.5267 5.58207 9.9182 3.97363 7.93409 3.97363Z" fill="#888A90"/>
</svg>
