<svg width="16" height="11" viewBox="0 0 16 11" fill="none" xmlns="http://www.w3.org/2000/svg">
<path d="M8.42364 0.0546875H7.44385V2.66744H8.42364V0.0546875Z" fill="#FCB641"/>
<path d="M2.96869 1.90778L2.27588 2.60059L4.12333 4.44804L4.81614 3.75523L2.96869 1.90778Z" fill="#FCB641"/>
<path d="M3.03512 7.07715H0.422363V8.05694H3.03512V7.07715Z" fill="#FCB641"/>
<path d="M15.4461 10.0156H0.422363V10.9954H15.4461V10.0156Z" fill="#FCB641"/>
<path d="M15.4467 7.07715H12.834V8.05694H15.4467V7.07715Z" fill="#FCB641"/>
<path d="M12.8997 1.90942L11.0522 3.75684L11.7451 4.44965L13.5925 2.60223L12.8997 1.90942Z" fill="#FCB641"/>
<path d="M7.93434 3.97363C5.95023 3.97363 4.3418 5.5821 4.3418 7.56618C4.3418 8.15421 4.48311 8.7092 4.73358 9.19914H11.1351C11.3856 8.70917 11.5269 8.15421 11.5269 7.56618C11.5269 5.58207 9.91845 3.97363 7.93434 3.97363Z" fill="#E66032"/>
</svg>
