<svg width="111" height="15" viewBox="0 0 111 15" fill="none" xmlns="http://www.w3.org/2000/svg">
<path d="M20.3052 13.1699V2.19434H22.508L29.2229 10.2126V2.19434H31.2434V13.1699H29.0406L22.3105 5.13641V13.1699H20.3052Z" fill="white"/>
<path d="M33.705 13.1699V2.19434H35.9079L39.873 6.93519L43.8229 2.19434H46.041V13.1699H44.0204V5.12117L39.873 10.0754L35.7104 5.13641V13.1699H33.705Z" fill="white"/>
<path d="M50.6249 13.1699C50.0476 13.1699 49.5514 12.9616 49.1361 12.5449C48.7209 12.1283 48.5132 11.6303 48.5132 11.051V10.2126H50.5186V10.609C50.5186 10.8935 50.5338 11.0561 50.5642 11.0968C50.6047 11.1273 50.7667 11.1425 51.0503 11.1425H56.8993C57.1828 11.1425 57.3398 11.1273 57.3702 11.0968C57.4107 11.0561 57.431 10.8935 57.431 10.609V9.22177C57.431 8.93722 57.4107 8.7797 57.3702 8.74921C57.3398 8.70856 57.1828 8.68824 56.8993 8.68824H50.6249C50.0476 8.68824 49.5514 8.47991 49.1361 8.06324C48.7209 7.64657 48.5132 7.1486 48.5132 6.56934V4.31324C48.5132 3.73397 48.7209 3.236 49.1361 2.81934C49.5514 2.40267 50.0476 2.19434 50.6249 2.19434H57.3398C57.9171 2.19434 58.4134 2.40267 58.8286 2.81934C59.2439 3.236 59.4515 3.73397 59.4515 4.31324V5.15165H57.431V4.75531C57.431 4.47076 57.4107 4.31324 57.3702 4.28275C57.3398 4.2421 57.1828 4.22178 56.8993 4.22178H51.0503C50.7667 4.22178 50.6047 4.2421 50.5642 4.28275C50.5338 4.31324 50.5186 4.47076 50.5186 4.75531V6.14251C50.5186 6.42706 50.5338 6.58458 50.5642 6.61507C50.6047 6.64556 50.7667 6.6608 51.0503 6.6608H57.3398C57.9171 6.6608 58.4134 6.87421 58.8286 7.30104C59.2439 7.71771 59.4515 8.21568 59.4515 8.79495V11.051C59.4515 11.6303 59.2439 12.1283 58.8286 12.5449C58.4134 12.9616 57.9171 13.1699 57.3398 13.1699H50.6249Z" fill="white"/>
<path fill-rule="evenodd" clip-rule="evenodd" d="M2.59939 1.76577L5.35244 5.85327C5.39165 5.91213 5.40822 5.9832 5.39908 6.05334C5.38994 6.12348 5.35571 6.18793 5.30272 6.23478C5.24973 6.28163 5.18158 6.30771 5.11085 6.3082C5.04012 6.30868 4.97161 6.28353 4.91799 6.23741L2.20793 3.8868C2.19204 3.87259 2.17237 3.86332 2.1513 3.8601C2.13024 3.85689 2.10869 3.85987 2.08929 3.8687C2.06989 3.87753 2.05349 3.89181 2.04207 3.9098C2.03065 3.9278 2.02472 3.94873 2.025 3.97003V11.3292C2.025 11.8441 2.15855 12.2557 2.74391 12.2557H5.62498H10.2896H13.1707C13.7561 12.2557 13.8896 11.8441 13.8896 11.3292V3.97003C13.8899 3.94873 13.884 3.9278 13.8726 3.9098C13.8611 3.89181 13.8447 3.87753 13.8253 3.8687C13.8059 3.85987 13.7844 3.85689 13.7633 3.8601C13.7423 3.86332 13.7226 3.87259 13.7067 3.8868L10.9966 6.23741C10.943 6.28353 10.8745 6.30868 10.8038 6.3082C10.733 6.30771 10.6649 6.28163 10.6119 6.23478C10.5589 6.18793 10.5247 6.12348 10.5155 6.05334C10.5064 5.9832 10.523 5.91213 10.5622 5.85327L13.3152 1.76577C13.4409 1.56139 13.6168 1.39262 13.8263 1.27557C14.0357 1.15853 14.2717 1.09711 14.5116 1.09717C14.8837 1.09717 15.2406 1.24499 15.5037 1.50811C15.7668 1.77123 15.9146 2.1281 15.9146 2.50022V12.8649C15.9146 13.0492 15.8783 13.2317 15.8077 13.402C15.7372 13.5723 15.6337 13.727 15.5034 13.8573C15.373 13.9876 15.2182 14.0909 15.0479 14.1614C14.8775 14.2318 14.695 14.268 14.5107 14.2679H14.2244H10.2896H5.62498H1.69024H1.40396C1.21964 14.268 1.03709 14.2318 0.866759 14.1614C0.696427 14.0909 0.54165 13.9876 0.411267 13.8573C0.280886 13.727 0.177455 13.5723 0.106888 13.402C0.0363216 13.2317 0 13.0492 0 12.8649V2.50022C0 2.1281 0.147821 1.77123 0.410944 1.50811C0.674067 1.24499 1.03094 1.09717 1.40305 1.09717C1.64297 1.09711 1.87891 1.15853 2.08834 1.27557C2.29778 1.39262 2.47372 1.56139 2.59939 1.76577Z" fill="#FCB641"/>
<path d="M82.6835 11.4718V4.93115H81.4023V12.7052H86.3824V11.4718H82.6835Z" fill="white"/>
<path d="M89.5636 5.40246L94.668 13.0299H96.6291V2.92285H94.9635V10.5638L89.8323 2.92285H87.8979V13.0299H89.5636V5.40246Z" fill="white"/>
<path d="M104.619 13.5368C107.413 13.5368 109.794 11.7289 110.67 9.24089L108.785 8.4779C108.223 10.2858 106.603 11.563 104.619 11.563C102.189 11.563 100.238 9.58918 100.238 7.13437C100.238 4.69614 102.189 2.70574 104.619 2.70574C106.603 2.70574 108.223 3.98291 108.785 5.79085L110.654 5.02786C109.794 2.52329 107.413 0.731934 104.619 0.731934C101.064 0.731934 98.1711 3.61801 98.1711 7.13437C98.1711 10.6507 101.064 13.5368 104.619 13.5368Z" fill="white"/>
<line x1="70.6765" y1="1.09279e-08" x2="70.6765" y2="15" stroke="white" stroke-width="0.5"/>
</svg>
