<svg width="16" height="15" viewBox="0 0 16 15" fill="none" xmlns="http://www.w3.org/2000/svg">
<path d="M4.8 6.3999L4.8 7.9999L12 7.9999L12 10.3999L16 7.1999L12 3.9999L12 6.3999L4.8 6.3999Z" fill="#888A90"/>
<path d="M1.5999 14.3999L8.7999 14.3999C9.6823 14.3999 10.3999 13.6823 10.3999 12.7999L10.3999 9.5999L8.7999 9.5999L8.7999 12.7999L1.5999 12.7999L1.5999 1.5999L8.7999 1.5999L8.7999 4.7999L10.3999 4.7999L10.3999 1.5999C10.3999 0.717502 9.6823 -9.82912e-05 8.7999 -9.83683e-05L1.5999 -9.89978e-05C0.717504 -9.90749e-05 -9.60786e-05 0.717501 -9.61558e-05 1.5999L-9.71349e-05 12.7999C-9.7212e-05 13.6823 0.717503 14.3999 1.5999 14.3999Z" fill="#888A90"/>
</svg>
