<svg width="20" height="20" viewBox="0 0 20 20" fill="none" xmlns="http://www.w3.org/2000/svg">
<path d="M19.6789 2.46967C19.5154 2.36239 19.3066 2.34557 19.1232 2.43573L2.044 10.8499C1.82973 10.9544 1.70562 11.1857 1.73366 11.4254C1.76476 11.6651 1.94247 11.857 2.17933 11.9078C4.2075 12.3338 7.35518 13.0107 8.42152 13.2702V18.7875C8.42152 19.0243 8.56821 19.2388 8.79384 19.3178C8.85597 19.3404 8.92079 19.3518 8.98561 19.3518C9.14912 19.3518 9.31001 19.2813 9.41722 19.1486L12.9486 14.9006C13.902 15.2758 16.7028 16.3533 19.0976 17.2757C19.1652 17.3011 19.233 17.3125 19.3007 17.3125C19.4136 17.3125 19.5235 17.2785 19.6194 17.2166C19.7718 17.1122 19.8619 16.9401 19.8648 16.7539L20 2.97499C20.0033 2.75467 19.8735 2.56268 19.6789 2.46967Z" fill="#FCB641"/>
<path d="M7.14027 10.4997C8.00072 9.75789 11.4925 6.40118 14.6969 3.2929L2.27745 9.41099C5.30125 10.0513 6.57626 10.3446 7.14027 10.4997ZM7.50691 10.6181C7.45331 10.5899 7.39679 10.5674 7.3434 10.5588C7.41391 10.5816 7.46751 10.6013 7.50691 10.6181ZM17.9492 0.740112C18.1438 0.833119 18.2736 1.02511 18.2708 1.24506L18.1353 15.024C18.1325 15.21 18.0423 15.3823 17.8899 15.4865C17.7941 15.5486 17.684 15.5823 17.5712 15.5823C17.5036 15.5823 17.4358 15.571 17.3681 15.5455C14.9734 14.6232 12.1724 13.5456 11.2191 13.1705L7.68754 17.4189C7.58026 17.5516 7.41966 17.6221 7.25593 17.6221C7.19111 17.6221 7.12614 17.6107 7.06416 17.5881C6.83853 17.5091 6.69184 17.2948 6.69184 17.0578V11.5405C5.62565 11.2809 2.47774 10.6041 0.449645 10.1781C0.212793 10.1274 0.0350813 9.93561 0.00398176 9.69569C-0.0242773 9.456 0.0998296 9.22468 0.314322 9.12024L17.3935 0.706172C17.5767 0.616005 17.7855 0.633048 17.9492 0.740112ZM17.0155 14.2005L17.1228 3.31832C15.1117 6.69477 12.6716 10.827 11.9073 12.2289C12.9086 12.618 15.1565 13.4868 17.0155 14.2005Z" fill="#353739"/>
<path d="M17.1227 3.31836L17.0154 14.2006C15.1565 13.487 12.9086 12.6181 11.9072 12.2289C12.6716 10.827 15.1114 6.69474 17.1227 3.31836Z" fill="#3B4551"/>
<path d="M2.27759 9.41106L14.697 3.29297C11.4926 6.40125 8.00063 9.75803 7.14041 10.4998C6.57639 10.3446 5.30138 10.0513 2.27759 9.41106Z" fill="#3B4551"/>
</svg>
