<svg width="111" height="15" viewBox="0 0 111 15" fill="none" xmlns="http://www.w3.org/2000/svg">
<path d="M20.3052 13.169V2.19336H22.508L29.2229 10.2117V2.19336H31.2434V13.169H29.0406L22.3105 5.13543V13.169H20.3052Z" fill="#3B4551"/>
<path d="M33.705 13.169V2.19336H35.9079L39.873 6.93421L43.8229 2.19336H46.041V13.169H44.0204V5.12019L39.873 10.0745L35.7104 5.13543V13.169H33.705Z" fill="#3B4551"/>
<path d="M50.6249 13.169C50.0476 13.169 49.5514 12.9606 49.1361 12.544C48.7209 12.1273 48.5132 11.6293 48.5132 11.0501V10.2117H50.5186V10.608C50.5186 10.8925 50.5338 11.0551 50.5642 11.0958C50.6047 11.1263 50.7667 11.1415 51.0503 11.1415H56.8993C57.1828 11.1415 57.3398 11.1263 57.3702 11.0958C57.4107 11.0551 57.431 10.8925 57.431 10.608V9.2208C57.431 8.93625 57.4107 8.77873 57.3702 8.74824C57.3398 8.70759 57.1828 8.68726 56.8993 8.68726H50.6249C50.0476 8.68726 49.5514 8.47893 49.1361 8.06226C48.7209 7.6456 48.5132 7.14763 48.5132 6.56836V4.31226C48.5132 3.73299 48.7209 3.23503 49.1361 2.81836C49.5514 2.40169 50.0476 2.19336 50.6249 2.19336H57.3398C57.9171 2.19336 58.4134 2.40169 58.8286 2.81836C59.2439 3.23503 59.4515 3.73299 59.4515 4.31226V5.15068H57.431V4.75433C57.431 4.46978 57.4107 4.31226 57.3702 4.28177C57.3398 4.24112 57.1828 4.2208 56.8993 4.2208H51.0503C50.7667 4.2208 50.6047 4.24112 50.5642 4.28177C50.5338 4.31226 50.5186 4.46978 50.5186 4.75433V6.14153C50.5186 6.42608 50.5338 6.5836 50.5642 6.61409C50.6047 6.64458 50.7667 6.65982 51.0503 6.65982H57.3398C57.9171 6.65982 58.4134 6.87324 58.8286 7.30007C59.2439 7.71673 59.4515 8.2147 59.4515 8.79397V11.0501C59.4515 11.6293 59.2439 12.1273 58.8286 12.544C58.4134 12.9606 57.9171 13.169 57.3398 13.169H50.6249Z" fill="#3B4551"/>
<path fill-rule="evenodd" clip-rule="evenodd" d="M2.59939 1.76528L5.35244 5.85278C5.39165 5.91164 5.40822 5.98272 5.39908 6.05285C5.38994 6.12299 5.35571 6.18744 5.30272 6.23429C5.24973 6.28115 5.18158 6.30723 5.11085 6.30771C5.04012 6.30819 4.97161 6.28305 4.91799 6.23692L2.20793 3.88631C2.19204 3.8721 2.17237 3.86283 2.1513 3.85961C2.13024 3.8564 2.10869 3.85939 2.08929 3.86821C2.06989 3.87704 2.05349 3.89132 2.04207 3.90931C2.03065 3.92731 2.02472 3.94824 2.025 3.96955V11.3287C2.025 11.8436 2.15855 12.2552 2.74391 12.2552H5.62498H10.2896H13.1707C13.7561 12.2552 13.8896 11.8436 13.8896 11.3287V3.96955C13.8899 3.94824 13.884 3.92731 13.8726 3.90931C13.8611 3.89132 13.8447 3.87704 13.8253 3.86821C13.8059 3.85939 13.7844 3.8564 13.7633 3.85961C13.7423 3.86283 13.7226 3.8721 13.7067 3.88631L10.9966 6.23692C10.943 6.28305 10.8745 6.30819 10.8038 6.30771C10.733 6.30723 10.6649 6.28115 10.6119 6.23429C10.5589 6.18744 10.5247 6.12299 10.5155 6.05285C10.5064 5.98272 10.523 5.91164 10.5622 5.85278L13.3152 1.76528C13.4409 1.5609 13.6168 1.39213 13.8263 1.27509C14.0357 1.15804 14.2717 1.09662 14.5116 1.09668C14.8837 1.09668 15.2406 1.2445 15.5037 1.50762C15.7668 1.77075 15.9146 2.12762 15.9146 2.49973V12.8644C15.9146 13.0487 15.8783 13.2312 15.8077 13.4015C15.7372 13.5718 15.6337 13.7265 15.5034 13.8568C15.373 13.9871 15.2182 14.0904 15.0479 14.1609C14.8775 14.2313 14.695 14.2675 14.5107 14.2674H14.2244H10.2896H5.62498H1.69024H1.40396C1.21964 14.2675 1.03709 14.2313 0.866759 14.1609C0.696427 14.0904 0.54165 13.9871 0.411267 13.8568C0.280886 13.7265 0.177455 13.5718 0.106888 13.4015C0.0363216 13.2312 0 13.0487 0 12.8644V2.49973C0 2.12762 0.147821 1.77075 0.410944 1.50762C0.674067 1.2445 1.03094 1.09668 1.40305 1.09668C1.64297 1.09662 1.87891 1.15804 2.08834 1.27509C2.29778 1.39213 2.47372 1.5609 2.59939 1.76528Z" fill="#FCB641"/>
<path d="M82.6835 11.4723V4.93164H81.4023V12.7057H86.3824V11.4723H82.6835Z" fill="#3B4551"/>
<path d="M89.5636 5.40344L94.668 13.0309H96.6291V2.92383H94.9635V10.5648L89.8323 2.92383H87.8979V13.0309H89.5636V5.40344Z" fill="#3B4551"/>
<path d="M104.619 13.5373C107.413 13.5373 109.794 11.7294 110.67 9.24137L108.786 8.47839C108.224 10.2863 106.603 11.5635 104.619 11.5635C102.189 11.5635 100.238 9.58967 100.238 7.13486C100.238 4.69663 102.189 2.70623 104.619 2.70623C106.603 2.70623 108.224 3.9834 108.786 5.79134L110.654 5.02835C109.794 2.52378 107.413 0.732422 104.619 0.732422C101.065 0.732422 98.1714 3.6185 98.1714 7.13486C98.1714 10.6512 101.065 13.5373 104.619 13.5373Z" fill="#3B4551"/>
<line x1="70.6768" y1="1.09279e-08" x2="70.6768" y2="15" stroke="#3B4551" stroke-width="0.5"/>
</svg>
