<svg width="44" height="36" viewBox="0 0 44 36" fill="none" xmlns="http://www.w3.org/2000/svg">
<path fill-rule="evenodd" clip-rule="evenodd" d="M7.105 1.8275L14.63 13C14.7372 13.1609 14.7825 13.3552 14.7575 13.5469C14.7325 13.7386 14.6389 13.9148 14.4941 14.0428C14.3493 14.1709 14.163 14.2422 13.9697 14.2435C13.7763 14.2448 13.5891 14.1761 13.4425 14.05L6.035 7.625C5.99159 7.58616 5.93781 7.5608 5.88023 7.55202C5.82264 7.54323 5.76375 7.5514 5.71073 7.57552C5.65771 7.59965 5.61286 7.63868 5.58166 7.68787C5.55045 7.73705 5.53424 7.79426 5.535 7.8525V27.9675C5.535 29.375 5.90003 30.5 7.50003 30.5H15.375H28.125H36C37.6 30.5 37.9651 29.375 37.9651 27.9675V7.8525C37.9658 7.79426 37.9496 7.73705 37.9184 7.68787C37.8872 7.63868 37.8423 7.59965 37.7893 7.57552C37.7363 7.5514 37.6774 7.54323 37.6198 7.55202C37.5622 7.5608 37.5085 7.58616 37.4651 7.625L30.0576 14.05C29.911 14.1761 29.7237 14.2448 29.5304 14.2435C29.3371 14.2422 29.1508 14.1709 29.0059 14.0428C28.8611 13.9148 28.7676 13.7386 28.7426 13.5469C28.7176 13.3552 28.7629 13.1609 28.8701 13L36.3951 1.8275C36.7385 1.26886 37.2195 0.807572 37.7919 0.487644C38.3644 0.167717 39.0093 -0.000172042 39.6651 1.32293e-07C40.6822 1.32293e-07 41.6576 0.404043 42.3768 1.12325C43.096 1.84245 43.5001 2.81789 43.5001 3.835V32.165C43.5001 32.6688 43.4008 33.1677 43.2079 33.6332C43.015 34.0986 42.7323 34.5215 42.3759 34.8776C42.0195 35.2338 41.5965 35.5162 41.1309 35.7088C40.6653 35.9014 40.1664 36.0003 39.6626 36H38.8801H28.125H15.375H4.62H3.8375C3.33367 36.0003 2.83471 35.9014 2.36914 35.7088C1.90357 35.5162 1.48051 35.2338 1.12413 34.8776C0.767754 34.5215 0.485043 34.0986 0.29216 33.6332C0.0992775 33.1677 0 32.6688 0 32.165V3.835C0 2.81789 0.404045 1.84245 1.12325 1.12325C1.84245 0.404043 2.81789 1.32293e-07 3.835 1.32293e-07C4.49079 -0.000172042 5.13568 0.167717 5.70814 0.487644C6.28059 0.807572 6.76151 1.26886 7.105 1.8275Z" fill="#FCB641"/>
</svg>
